<?xml version="1.0" encoding="UTF-8"?>
<svg width="144" height="144" viewBox="0 0 144 144" xmlns="http://www.w3.org/2000/svg">
  <!-- 背景圓形 -->
  <circle cx="72" cy="72" r="64" fill="#3b82f6"/>
  
  <!-- 水滴圖示 -->
  <g transform="translate(52, 44)">
    <path d="M20 10 C20 4, 16 0, 10 0 C4 0, 0 4, 0 10 C0 16, 4 20, 10 20 C16 20, 20 16, 20 10 Z" 
          fill="#ffffff"/>
    <ellipse cx="6" cy="6" rx="2" ry="3" fill="#e0f2fe" opacity="0.7"/>
  </g>
  
  <!-- 計時器圓環 -->
  <g transform="translate(72, 92)">
    <circle cx="0" cy="0" r="16" fill="none" stroke="#ffffff" stroke-width="2" opacity="0.4"/>
    <circle cx="0" cy="0" r="16" fill="none" stroke="#ffffff" stroke-width="2" 
            stroke-dasharray="67" stroke-dashoffset="33" 
            stroke-linecap="round" transform="rotate(-90)"/>
    <circle cx="0" cy="0" r="1.5" fill="#ffffff"/>
  </g>
  
  <!-- 番茄圖示 -->
  <g transform="translate(100, 52) scale(0.3)">
    <circle cx="0" cy="4" r="8" fill="#ef4444"/>
    <path d="M-5 -2 C-4 -5, -1 -3, 0 -2 C1 -5, 4 -3, 5 -2" 
          fill="#22c55e"/>
  </g>
</svg>