<?xml version="1.0" encoding="UTF-8"?>
<svg width="192" height="192" viewBox="0 0 192 192" xmlns="http://www.w3.org/2000/svg">
  <!-- 背景圓形 -->
  <circle cx="96" cy="96" r="88" fill="#3b82f6"/>
  
  <!-- 水滴圖示 -->
  <g transform="translate(70, 60)">
    <path d="M26 14 C26 6, 20 0, 12 0 C4 0, -2 6, -2 14 C-2 22, 4 28, 12 28 C20 28, 26 22, 26 14 Z" 
          fill="#ffffff"/>
    <ellipse cx="7" cy="9" rx="3" ry="4" fill="#e0f2fe" opacity="0.7"/>
  </g>
  
  <!-- 計時器圓環 -->
  <g transform="translate(96, 120)">
    <circle cx="0" cy="0" r="22" fill="none" stroke="#ffffff" stroke-width="3" opacity="0.4"/>
    <circle cx="0" cy="0" r="22" fill="none" stroke="#ffffff" stroke-width="3" 
            stroke-dasharray="92" stroke-dashoffset="46" 
            stroke-linecap="round" transform="rotate(-90)"/>
    <circle cx="0" cy="0" r="2" fill="#ffffff"/>
  </g>
  
  <!-- 簡化的番茄圖示 -->
  <g transform="translate(120, 70) scale(0.4)">
    <circle cx="0" cy="8" r="12" fill="#ef4444"/>
    <path d="M-8 -4 C-6 -8, -2 -6, 0 -4 C2 -8, 6 -6, 8 -4" 
          fill="#22c55e" stroke="none"/>
  </g>
</svg>