<svg width="512" height="512" viewBox="0 0 512 512" xmlns="http://www.w3.org/2000/svg"><circle cx="256" cy="256" r="240" fill="#3b82f6" stroke="#1e40af" stroke-width="8"/><g transform="translate(180,160)"><path d="M76 40C76 18 58 0 36 0S-4 18-4 40s18 40 40 40 40-18 40-40z" fill="#fff" opacity=".9"/><ellipse cx="20" cy="25" rx="8" ry="12" fill="#e0f2fe" opacity=".7"/></g><g transform="translate(256,320)"><circle r="60" fill="none" stroke="#fff" stroke-width="6" opacity=".3"/><circle r="60" fill="none" stroke="#fff" stroke-width="6" stroke-dasharray="251.3" stroke-dashoffset="125.65" stroke-linecap="round" transform="rotate(-90)"/><circle r="4" fill="#fff"/></g><g transform="translate(380,140)scale(.6)"><path d="M40 20c20-5 40 5 45 30s-20 40-45 40-45-15-40-40 20-35 40-30z" fill="#ef4444" opacity=".8"/><path d="M35 15c-5-5-10-3-7 3 4-6 10-8 14-3s12-5 9 3c3-3-2 2-7 0" fill="#22c55e" opacity=".8"/></g><text x="256" y="450" text-anchor="middle" font-family="Arial,sans-serif" font-size="36" font-weight="bold" fill="#fff">FlowSip</text><text x="256" y="480" text-anchor="middle" font-family="Arial,sans-serif" font-size="16" fill="#e0f2fe" opacity=".8">喝水 · 專注 · 健康</text></svg>